<?xml version="1.0" encoding="UTF-8" standalone="no"?>
<svg
   width="553.91699pt"
   height="241.70024pt"
   viewBox="0 0 553.91701 241.70024"
   version="1.1"
   id="svg66"
   sodipodi:docname="SENB_geometry.svg"
   inkscape:version="1.2.2 (1:1.2.2+202305151914+b0a8486541)"
   xmlns:inkscape="http://www.inkscape.org/namespaces/inkscape"
   xmlns:sodipodi="http://sodipodi.sourceforge.net/DTD/sodipodi-0.dtd"
   xmlns="http://www.w3.org/2000/svg"
   xmlns:svg="http://www.w3.org/2000/svg"
   xmlns:rdf="http://www.w3.org/1999/02/22-rdf-syntax-ns#"
   xmlns:cc="http://creativecommons.org/ns#"
   xmlns:dc="http://purl.org/dc/elements/1.1/"
   xmlns:ns2="http://www.iki.fi/pav/software/textext/">
  <sodipodi:namedview
     id="namedview68"
     pagecolor="#ffffff"
     bordercolor="#000000"
     borderopacity="0.25"
     inkscape:showpageshadow="2"
     inkscape:pageopacity="0.0"
     inkscape:pagecheckerboard="0"
     inkscape:deskcolor="#d1d1d1"
     inkscape:document-units="pt"
     showgrid="false"
     inkscape:zoom="0.29845079"
     inkscape:cx="970.00916"
     inkscape:cy="514.32265"
     inkscape:window-width="1846"
     inkscape:window-height="1016"
     inkscape:window-x="74"
     inkscape:window-y="27"
     inkscape:window-maximized="1"
     inkscape:current-layer="g64" />
  <title
     id="title2">SENB</title>
  <desc
     id="desc4">
Creator: GL2PS 1.4.3, (C) 1999-2020 C. Geuzaine
For: Gmsh
CreationDate: Wed Aug  9 10:54:59 2023
</desc>
  <defs
     id="defs6">
    <marker
       style="overflow:visible"
       id="marker4637"
       refX="0"
       refY="0"
       orient="auto-start-reverse"
       inkscape:stockid="Arrow3"
       markerWidth="4.8081222"
       markerHeight="8"
       viewBox="0 0 4.2071068 7"
       inkscape:isstock="true"
       inkscape:collect="always"
       preserveAspectRatio="xMidYMid"
       markerUnits="strokeWidth">
      <path
         style="fill:none;stroke:context-stroke;stroke-width:1;stroke-linecap:round"
         d="M 3,-3 0,0 3,3"
         id="path4635"
         transform="rotate(180,0.125,0)"
         sodipodi:nodetypes="ccc" />
    </marker>
    <marker
       style="overflow:visible"
       id="Arrow3"
       refX="0"
       refY="0"
       orient="auto-start-reverse"
       inkscape:stockid="Arrow3"
       markerWidth="4.2071066"
       markerHeight="6.9999995"
       viewBox="0 0 4.2071068 7"
       inkscape:isstock="true"
       inkscape:collect="always"
       preserveAspectRatio="xMidYMid">
      <path
         style="fill:none;stroke:context-stroke;stroke-width:1;stroke-linecap:round"
         d="M 3,-3 0,0 3,3"
         id="arrow3"
         transform="rotate(180,0.125,0)"
         sodipodi:nodetypes="ccc" />
    </marker>
    <marker
       style="overflow:visible"
       id="Arrow1L"
       refX="0"
       refY="0"
       orient="auto-start-reverse"
       inkscape:stockid="Arrow1L"
       markerWidth="8.75"
       markerHeight="5"
       viewBox="0 0 8.75 5"
       inkscape:isstock="true"
       inkscape:collect="always"
       preserveAspectRatio="xMidYMid"
       markerUnits="strokeWidth">
      <path
         style="fill:context-stroke;fill-rule:evenodd;stroke:none"
         d="M 0,0 5,-5 -12.5,0 5,5 Z"
         id="arrow1L"
         transform="scale(-0.5)" />
    </marker>
  </defs>
  <g
     id="g64"
     transform="translate(-262.64941,-216.64217)">
    <path
       id="path3118"
       style="fill:#cccccc;stroke:#000000;stroke-width:1.5;stroke-dasharray:none"
       d="M 269.18295,392.6712 V 271.6709 h 484.00113 v 121.0003 l -234.09876,-10e-6 v -38.18021 l -7.9018,-7.90179 -7.9018,7.90179 v 38.18021 z"
       sodipodi:nodetypes="cccccccccc" />
    <path
       style="fill:none;stroke:#000000;stroke-width:0.8;stroke-dasharray:none"
       d="m 510.88611,346.68569 c 0.0244,-2.16701 0.0529,-4.33168 0.0738,-6.50101 0.0163,-1.78992 0.64386,-6.72581 0.56546,-8.50209 -0.0472,-1.07173 -0.7092,-3.84657 -0.63356,-5.12043 0.16787,-2.82933 0.27229,-5.06902 0.27229,-8.2543 0,-0.47954 -0.50325,-1.57104 -0.52495,-1.71556 -0.0816,-0.54805 0.4105,-1.26566 0.30934,-2.46157 -0.0244,-0.28874 0.019,-0.72539 0,-1.033 -0.0317,-0.48688 -0.29014,-2.51243 -0.0621,-2.51243"
       id="path3116"
       sodipodi:nodetypes="ccccscscc" />
    <path
       style="fill:#0000ff;stroke:#000080;stroke-width:1.5;stroke-dasharray:none;marker-end:url(#Arrow1L)"
       d="m 511.18352,216.64217 v 42.27875"
       id="path3176"
       sodipodi:nodetypes="cc" />
    <path
       sodipodi:type="star"
       style="fill:#000000;stroke:#000000;stroke-width:1.23956;stroke-dasharray:none"
       id="path3441"
       inkscape:flatsided="false"
       sodipodi:sides="3"
       sodipodi:cx="918.13306"
       sodipodi:cy="390.18765"
       sodipodi:r1="34.114037"
       sodipodi:r2="17.057018"
       sodipodi:arg1="1.5707963"
       sodipodi:arg2="2.6179939"
       inkscape:rounded="0"
       inkscape:randomized="0"
       d="m 918.13306,424.30169 -14.77181,-25.58553 -14.77182,-25.58552 29.54363,-1e-5 29.54362,0 -14.77181,25.58553 z"
       transform="matrix(0.41708509,0,0,-0.41708509,362.74447,569.64111)"
       inkscape:transform-center-y="-3.5571153"
       inkscape:transform-center-x="4.767383e-06" />
    <path
       sodipodi:type="star"
       style="fill:#000000;stroke:#000000;stroke-width:1.23956;stroke-dasharray:none"
       id="path3443"
       inkscape:flatsided="false"
       sodipodi:sides="3"
       sodipodi:cx="918.13306"
       sodipodi:cy="390.18765"
       sodipodi:r1="34.114037"
       sodipodi:r2="17.057018"
       sodipodi:arg1="1.5707963"
       sodipodi:arg2="2.6179939"
       inkscape:rounded="0"
       inkscape:randomized="0"
       d="m 918.13306,424.30169 -14.77181,-25.58553 -14.77182,-25.58552 29.54363,-1e-5 29.54362,0 -14.77181,25.58553 z"
       transform="matrix(0.41708509,0,0,-0.41708509,-107.52026,569.64111)"
       inkscape:transform-center-y="-3.5571153"
       inkscape:transform-center-x="4.767383e-06" />
    <path
       style="fill:#000000;stroke:#000000;stroke-width:0.75;stroke-dasharray:none;marker-start:url(#marker4637);marker-end:url(#Arrow3)"
       d="M 275.41935,431.86653 H 745.68408"
       id="path3499" />
    <g
       ns2:version="1.8.2"
       ns2:texconverter="pdflatex"
       ns2:pdfconverter="inkscape"
       ns2:text="$2L$"
       ns2:preamble="/home/bleyerj/texmf/tex/latex/mystyle/mystyle.sty"
       ns2:scale="1.9869306"
       ns2:alignment="middle center"
       ns2:stroke-to-path="0"
       ns2:inkscapeversion="1.2.2"
       transform="matrix(1.98693,0,0,1.98693,499.68335,444.80745)"
       ns2:jacobian_sqrt="1.98693"
       id="g5473">
      <defs
         id="id-b408ed97-5ced-4ad8-949c-e625810050eb">
        <g
           id="id-3f34ca2e-0cd0-494a-8807-e2e47701aee7">
          <symbol
             overflow="visible"
             id="id-085c21d2-f816-4d9d-b6c8-fd28685427e0">
            <path
               style="stroke:none;stroke-width:0"
               d=""
               id="id-dd8eafa6-9c34-4b53-a13b-800ac43d164b" />
          </symbol>
          <symbol
             overflow="visible"
             id="id-a31a0156-c57e-4aa9-9075-ab6bce3fd7dd">
            <path
               style="stroke:none;stroke-width:0"
               d="m 1.265625,-0.765625 1.0625,-1.03125 c 1.546875,-1.375 2.140625,-1.90625 2.140625,-2.90625 0,-1.140625 -0.890625,-1.9375 -2.109375,-1.9375 -1.125,0 -1.859375,0.921875 -1.859375,1.8125 0,0.546875 0.5,0.546875 0.53125,0.546875 0.171875,0 0.515625,-0.109375 0.515625,-0.53125 0,-0.25 -0.1875,-0.515625 -0.53125,-0.515625 -0.078125,0 -0.09375,0 -0.125,0.015625 0.21875,-0.65625 0.765625,-1.015625 1.34375,-1.015625 0.90625,0 1.328125,0.8125 1.328125,1.625 C 3.5625,-3.90625 3.078125,-3.125 2.515625,-2.5 l -1.90625,2.125 C 0.5,-0.265625 0.5,-0.234375 0.5,0 H 4.203125 L 4.46875,-1.734375 H 4.234375 C 4.171875,-1.4375 4.109375,-1 4,-0.84375 3.9375,-0.765625 3.28125,-0.765625 3.0625,-0.765625 Z m 0,0"
               id="id-aca7ba07-4412-4306-9745-f0935b7575ea" />
          </symbol>
          <symbol
             overflow="visible"
             id="id-39f57df5-b152-40ae-836f-0a36f899b20f">
            <path
               style="stroke:none;stroke-width:0"
               d=""
               id="id-733e82fa-f340-40ec-b64c-a1185912ec99" />
          </symbol>
          <symbol
             overflow="visible"
             id="id-b0c8d898-f868-439e-9e5a-6fbf8571b706">
            <path
               style="stroke:none;stroke-width:0"
               d="M 3.734375,-6.03125 C 3.8125,-6.390625 3.84375,-6.5 4.78125,-6.5 c 0.296875,0 0.375,0 0.375,-0.1875 0,-0.125 -0.109375,-0.125 -0.15625,-0.125 -0.328125,0 -1.140625,0.03125 -1.46875,0.03125 -0.296875,0 -1.03125,-0.03125 -1.328125,-0.03125 -0.0625,0 -0.1875,0 -0.1875,0.203125 0,0.109375 0.09375,0.109375 0.28125,0.109375 0.015625,0 0.203125,0 0.375,0.015625 0.171875,0.03125 0.265625,0.03125 0.265625,0.171875 0,0.03125 0,0.0625 -0.03125,0.1875 L 1.5625,-0.78125 c -0.09375,0.390625 -0.109375,0.46875 -0.90625,0.46875 -0.171875,0 -0.265625,0 -0.265625,0.203125 C 0.390625,0 0.484375,0 0.65625,0 h 4.625 C 5.515625,0 5.515625,0 5.578125,-0.171875 L 6.375,-2.328125 c 0.03125,-0.109375 0.03125,-0.125 0.03125,-0.140625 0,-0.03125 -0.03125,-0.109375 -0.109375,-0.109375 -0.09375,0 -0.109375,0.0625 -0.171875,0.21875 -0.34375,0.90625 -0.78125,2.046875 -2.5,2.046875 H 2.6875 c -0.140625,0 -0.171875,0 -0.21875,0 -0.109375,-0.015625 -0.140625,-0.03125 -0.140625,-0.109375 0,-0.03125 0,-0.046875 0.046875,-0.21875 z m 0,0"
               id="id-9ff9d007-e9f8-41e9-bca7-c1e3785f77b2" />
          </symbol>
        </g>
      </defs>
      <g
         id="id-bf716f68-f70b-4529-823e-2c7e661a8306"
         transform="translate(-149.212,-127.953)">
        <g
           style="fill:#000000;fill-opacity:1"
           id="id-314f33dd-e5b8-428a-9fdd-4cc356829077">
          <g
             transform="translate(148.712,134.765)"
             id="g5465">
            <path
               style="stroke:none;stroke-width:0"
               d="m 1.265625,-0.765625 1.0625,-1.03125 c 1.546875,-1.375 2.140625,-1.90625 2.140625,-2.90625 0,-1.140625 -0.890625,-1.9375 -2.109375,-1.9375 -1.125,0 -1.859375,0.921875 -1.859375,1.8125 0,0.546875 0.5,0.546875 0.53125,0.546875 0.171875,0 0.515625,-0.109375 0.515625,-0.53125 0,-0.25 -0.1875,-0.515625 -0.53125,-0.515625 -0.078125,0 -0.09375,0 -0.125,0.015625 0.21875,-0.65625 0.765625,-1.015625 1.34375,-1.015625 0.90625,0 1.328125,0.8125 1.328125,1.625 C 3.5625,-3.90625 3.078125,-3.125 2.515625,-2.5 l -1.90625,2.125 C 0.5,-0.265625 0.5,-0.234375 0.5,0 H 4.203125 L 4.46875,-1.734375 H 4.234375 C 4.171875,-1.4375 4.109375,-1 4,-0.84375 3.9375,-0.765625 3.28125,-0.765625 3.0625,-0.765625 Z m 0,0"
               id="id-97d1970f-e911-489c-852e-9cf451fe15eb" />
          </g>
        </g>
        <g
           style="fill:#000000;fill-opacity:1"
           id="id-de98e5da-7aa9-4f61-94e4-06d27bd65a68">
          <g
             transform="translate(153.694,134.765)"
             id="g5469">
            <path
               style="stroke:none;stroke-width:0"
               d="M 3.734375,-6.03125 C 3.8125,-6.390625 3.84375,-6.5 4.78125,-6.5 c 0.296875,0 0.375,0 0.375,-0.1875 0,-0.125 -0.109375,-0.125 -0.15625,-0.125 -0.328125,0 -1.140625,0.03125 -1.46875,0.03125 -0.296875,0 -1.03125,-0.03125 -1.328125,-0.03125 -0.0625,0 -0.1875,0 -0.1875,0.203125 0,0.109375 0.09375,0.109375 0.28125,0.109375 0.015625,0 0.203125,0 0.375,0.015625 0.171875,0.03125 0.265625,0.03125 0.265625,0.171875 0,0.03125 0,0.0625 -0.03125,0.1875 L 1.5625,-0.78125 c -0.09375,0.390625 -0.109375,0.46875 -0.90625,0.46875 -0.171875,0 -0.265625,0 -0.265625,0.203125 C 0.390625,0 0.484375,0 0.65625,0 h 4.625 C 5.515625,0 5.515625,0 5.578125,-0.171875 L 6.375,-2.328125 c 0.03125,-0.109375 0.03125,-0.125 0.03125,-0.140625 0,-0.03125 -0.03125,-0.109375 -0.109375,-0.109375 -0.09375,0 -0.109375,0.0625 -0.171875,0.21875 -0.34375,0.90625 -0.78125,2.046875 -2.5,2.046875 H 2.6875 c -0.140625,0 -0.171875,0 -0.21875,0 -0.109375,-0.015625 -0.140625,-0.03125 -0.140625,-0.109375 0,-0.03125 0,-0.046875 0.046875,-0.21875 z m 0,0"
               id="id-13a0a9ff-7755-4b4f-a21a-6803700eca08" />
          </g>
        </g>
      </g>
    </g>
    <path
       style="fill:#000000;stroke:#000000;stroke-width:0.75;stroke-dasharray:none;marker-start:url(#marker4637);marker-end:url(#Arrow3)"
       d="M 790.58711,272.02073 V 392.45885"
       id="path5529"
       sodipodi:nodetypes="cc" />
    <g
       ns2:version="1.8.2"
       ns2:texconverter="pdflatex"
       ns2:pdfconverter="inkscape"
       ns2:text="$H$"
       ns2:preamble="/home/bleyerj/texmf/tex/latex/mystyle/mystyle.sty"
       ns2:scale="1.9869306"
       ns2:alignment="middle center"
       ns2:stroke-to-path="0"
       ns2:inkscapeversion="1.2.2"
       transform="matrix(1.98693,0,0,1.98693,799.89554,325.41344)"
       ns2:jacobian_sqrt="1.98693"
       id="g5581">
      <defs
         id="id-71a8c99c-fa72-48b9-b844-656149bf5dc1">
        <g
           id="id-bd0cfa8d-17ff-470a-b025-151e94a081ee">
          <symbol
             overflow="visible"
             id="id-8c2b7131-858e-4caa-a5d5-7859e5009e77">
            <path
               style="stroke:none"
               d=""
               id="id-661bb714-b4c8-4790-b4c0-3190d3f51fd6" />
          </symbol>
          <symbol
             overflow="visible"
             id="id-a36d56c1-faa4-492d-a959-0e830d842e3c">
            <path
               style="stroke:none"
               d="M 7.609375,-6.046875 C 7.703125,-6.40625 7.71875,-6.5 8.4375,-6.5 c 0.265625,0 0.34375,0 0.34375,-0.203125 0,-0.109375 -0.109375,-0.109375 -0.140625,-0.109375 -0.28125,0 -1,0.03125 -1.28125,0.03125 -0.28125,0 -0.984375,-0.03125 -1.28125,-0.03125 -0.078125,0 -0.1875,0 -0.1875,0.203125 0,0.109375 0.09375,0.109375 0.28125,0.109375 0.015625,0 0.203125,0 0.375,0.015625 0.1875,0.03125 0.265625,0.03125 0.265625,0.171875 0,0.03125 0,0.046875 -0.03125,0.1875 L 6.1875,-3.703125 H 3.140625 l 0.59375,-2.34375 C 3.8125,-6.40625 3.84375,-6.5 4.5625,-6.5 c 0.265625,0 0.34375,0 0.34375,-0.203125 0,-0.109375 -0.109375,-0.109375 -0.140625,-0.109375 -0.28125,0 -1,0.03125 -1.28125,0.03125 -0.28125,0 -0.984375,-0.03125 -1.28125,-0.03125 -0.078125,0 -0.1875,0 -0.1875,0.203125 0,0.109375 0.09375,0.109375 0.28125,0.109375 0.015625,0 0.203125,0 0.375,0.015625 0.171875,0.03125 0.265625,0.03125 0.265625,0.171875 0,0.03125 0,0.0625 -0.03125,0.1875 L 1.5625,-0.78125 c -0.09375,0.390625 -0.109375,0.46875 -0.90625,0.46875 -0.171875,0 -0.265625,0 -0.265625,0.203125 C 0.390625,0 0.515625,0 0.53125,0 0.8125,0 1.515625,-0.03125 1.796875,-0.03125 2,-0.03125 2.21875,-0.015625 2.4375,-0.015625 2.65625,-0.015625 2.875,0 3.078125,0 3.15625,0 3.28125,0 3.28125,-0.203125 3.28125,-0.3125 3.1875,-0.3125 3,-0.3125 c -0.375,0 -0.640625,0 -0.640625,-0.171875 0,-0.0625 0.015625,-0.109375 0.015625,-0.171875 l 0.6875,-2.734375 h 3.03125 c -0.40625,1.65625 -0.640625,2.609375 -0.6875,2.75 C 5.3125,-0.3125 5.125,-0.3125 4.5,-0.3125 c -0.140625,0 -0.234375,0 -0.234375,0.203125 C 4.265625,0 4.390625,0 4.40625,0 4.6875,0 5.390625,-0.03125 5.671875,-0.03125 5.875,-0.03125 6.09375,-0.015625 6.3125,-0.015625 6.53125,-0.015625 6.75,0 6.953125,0 7.03125,0 7.15625,0 7.15625,-0.203125 7.15625,-0.3125 7.0625,-0.3125 6.875,-0.3125 c -0.359375,0 -0.640625,0 -0.640625,-0.171875 0,-0.0625 0.015625,-0.109375 0.03125,-0.171875 z m 0,0"
               id="id-f8b09c69-96e6-4e90-b334-6d7a4de064dd" />
          </symbol>
        </g>
      </defs>
      <g
         id="id-49f5852f-3c91-43c8-ae4a-263c4a1cb135"
         transform="translate(-149.103,-127.953)">
        <g
           style="fill:#000000;fill-opacity:1"
           id="id-17b355a1-58f5-491c-941f-1683a0f1501c">
          <g
             transform="translate(148.712,134.765)"
             id="g5681">
            <path
               style="stroke:none"
               d="M 7.609375,-6.046875 C 7.703125,-6.40625 7.71875,-6.5 8.4375,-6.5 c 0.265625,0 0.34375,0 0.34375,-0.203125 0,-0.109375 -0.109375,-0.109375 -0.140625,-0.109375 -0.28125,0 -1,0.03125 -1.28125,0.03125 -0.28125,0 -0.984375,-0.03125 -1.28125,-0.03125 -0.078125,0 -0.1875,0 -0.1875,0.203125 0,0.109375 0.09375,0.109375 0.28125,0.109375 0.015625,0 0.203125,0 0.375,0.015625 0.1875,0.03125 0.265625,0.03125 0.265625,0.171875 0,0.03125 0,0.046875 -0.03125,0.1875 L 6.1875,-3.703125 H 3.140625 l 0.59375,-2.34375 C 3.8125,-6.40625 3.84375,-6.5 4.5625,-6.5 c 0.265625,0 0.34375,0 0.34375,-0.203125 0,-0.109375 -0.109375,-0.109375 -0.140625,-0.109375 -0.28125,0 -1,0.03125 -1.28125,0.03125 -0.28125,0 -0.984375,-0.03125 -1.28125,-0.03125 -0.078125,0 -0.1875,0 -0.1875,0.203125 0,0.109375 0.09375,0.109375 0.28125,0.109375 0.015625,0 0.203125,0 0.375,0.015625 0.171875,0.03125 0.265625,0.03125 0.265625,0.171875 0,0.03125 0,0.0625 -0.03125,0.1875 L 1.5625,-0.78125 c -0.09375,0.390625 -0.109375,0.46875 -0.90625,0.46875 -0.171875,0 -0.265625,0 -0.265625,0.203125 C 0.390625,0 0.515625,0 0.53125,0 0.8125,0 1.515625,-0.03125 1.796875,-0.03125 2,-0.03125 2.21875,-0.015625 2.4375,-0.015625 2.65625,-0.015625 2.875,0 3.078125,0 3.15625,0 3.28125,0 3.28125,-0.203125 3.28125,-0.3125 3.1875,-0.3125 3,-0.3125 c -0.375,0 -0.640625,0 -0.640625,-0.171875 0,-0.0625 0.015625,-0.109375 0.015625,-0.171875 l 0.6875,-2.734375 h 3.03125 c -0.40625,1.65625 -0.640625,2.609375 -0.6875,2.75 C 5.3125,-0.3125 5.125,-0.3125 4.5,-0.3125 c -0.140625,0 -0.234375,0 -0.234375,0.203125 C 4.265625,0 4.390625,0 4.40625,0 4.6875,0 5.390625,-0.03125 5.671875,-0.03125 5.875,-0.03125 6.09375,-0.015625 6.3125,-0.015625 6.53125,-0.015625 6.75,0 6.953125,0 7.03125,0 7.15625,0 7.15625,-0.203125 7.15625,-0.3125 7.0625,-0.3125 6.875,-0.3125 c -0.359375,0 -0.640625,0 -0.640625,-0.171875 0,-0.0625 0.015625,-0.109375 0.03125,-0.171875 z m 0,0"
               id="id-a05eaf9b-7dd7-4b96-9110-4a020623b41c" />
          </g>
        </g>
      </g>
    </g>
    <path
       style="fill:#000000;stroke:#000000;stroke-width:0.75;stroke-dasharray:none;marker-start:url(#marker4637);marker-end:url(#Arrow3)"
       d="m 552.25146,347.25515 v 44.22746"
       id="path5722"
       sodipodi:nodetypes="cc" />
    <g
       ns2:version="1.8.2"
       ns2:texconverter="pdflatex"
       ns2:pdfconverter="inkscape"
       ns2:text="$h$"
       ns2:preamble="/home/bleyerj/texmf/tex/latex/mystyle/mystyle.sty"
       ns2:scale="1.9869306"
       ns2:alignment="middle center"
       ns2:stroke-to-path="0"
       ns2:inkscapeversion="1.2.2"
       transform="matrix(1.98693,0,0,1.98693,559.951,362.348)"
       ns2:jacobian_sqrt="1.98693"
       id="g5764">
      <defs
         id="id-1e85481e-797d-4e3d-a337-3f14cbd73a57">
        <g
           id="id-508ce9d2-8ee2-43a1-bd8a-9ae777926eb3">
          <symbol
             overflow="visible"
             id="id-1f5a0214-0076-4436-bc08-71e8217fd64d">
            <path
               style="stroke:none"
               d=""
               id="id-46ad9468-e4aa-4aaa-bb72-dcc6d89abdc9" />
          </symbol>
          <symbol
             overflow="visible"
             id="id-b24f1390-0687-4a31-a7d5-b801ac650f79">
            <path
               style="stroke:none"
               d="m 2.859375,-6.8125 c 0,0 0,-0.109375 -0.125,-0.109375 -0.234375,0 -0.953125,0.078125 -1.21875,0.109375 -0.078125,0 -0.1875,0.015625 -0.1875,0.1875 0,0.125 0.09375,0.125 0.234375,0.125 0.484375,0 0.5,0.0625 0.5,0.171875 L 2.03125,-6.125 0.59375,-0.390625 c -0.046875,0.140625 -0.046875,0.15625 -0.046875,0.21875 0,0.234375 0.203125,0.28125 0.296875,0.28125 0.15625,0 0.3125,-0.125 0.359375,-0.265625 l 0.1875,-0.75 0.21875,-0.890625 C 1.671875,-2.03125 1.734375,-2.25 1.78125,-2.46875 1.796875,-2.53125 1.890625,-2.859375 1.890625,-2.921875 1.921875,-3.015625 2.234375,-3.5625 2.578125,-3.84375 2.796875,-4 3.09375,-4.1875 3.53125,-4.1875 c 0.421875,0 0.53125,0.34375 0.53125,0.703125 0,0.53125 -0.375,1.625 -0.609375,2.234375 C 3.375,-1.03125 3.3125,-0.90625 3.3125,-0.703125 c 0,0.46875 0.359375,0.8125 0.828125,0.8125 0.9375,0 1.296875,-1.453125 1.296875,-1.53125 0,-0.109375 -0.078125,-0.109375 -0.109375,-0.109375 -0.109375,0 -0.109375,0.03125 -0.15625,0.1875 -0.140625,0.53125 -0.46875,1.234375 -1.015625,1.234375 -0.171875,0 -0.234375,-0.09375 -0.234375,-0.328125 0,-0.25 0.078125,-0.484375 0.171875,-0.703125 0.15625,-0.4375 0.609375,-1.625 0.609375,-2.203125 0,-0.640625 -0.390625,-1.0625 -1.140625,-1.0625 -0.625,0 -1.109375,0.3125 -1.484375,0.765625 z m 0,0"
               id="id-3168b293-dbc5-4129-b9fc-8783f8829a97" />
          </symbol>
        </g>
      </defs>
      <g
         id="id-5d657cfa-5277-4f84-abe8-ef0779e6f6d7"
         transform="translate(-149.259,-127.843)">
        <g
           style="fill:#000000;fill-opacity:1"
           id="id-3d3f0f51-f6dc-47fc-8656-5c1930032ec9">
          <g
             transform="translate(148.712,134.765)"
             id="g5881">
            <path
               style="stroke:none"
               d="m 2.859375,-6.8125 c 0,0 0,-0.109375 -0.125,-0.109375 -0.234375,0 -0.953125,0.078125 -1.21875,0.109375 -0.078125,0 -0.1875,0.015625 -0.1875,0.1875 0,0.125 0.09375,0.125 0.234375,0.125 0.484375,0 0.5,0.0625 0.5,0.171875 L 2.03125,-6.125 0.59375,-0.390625 c -0.046875,0.140625 -0.046875,0.15625 -0.046875,0.21875 0,0.234375 0.203125,0.28125 0.296875,0.28125 0.15625,0 0.3125,-0.125 0.359375,-0.265625 l 0.1875,-0.75 0.21875,-0.890625 C 1.671875,-2.03125 1.734375,-2.25 1.78125,-2.46875 1.796875,-2.53125 1.890625,-2.859375 1.890625,-2.921875 1.921875,-3.015625 2.234375,-3.5625 2.578125,-3.84375 2.796875,-4 3.09375,-4.1875 3.53125,-4.1875 c 0.421875,0 0.53125,0.34375 0.53125,0.703125 0,0.53125 -0.375,1.625 -0.609375,2.234375 C 3.375,-1.03125 3.3125,-0.90625 3.3125,-0.703125 c 0,0.46875 0.359375,0.8125 0.828125,0.8125 0.9375,0 1.296875,-1.453125 1.296875,-1.53125 0,-0.109375 -0.078125,-0.109375 -0.109375,-0.109375 -0.109375,0 -0.109375,0.03125 -0.15625,0.1875 -0.140625,0.53125 -0.46875,1.234375 -1.015625,1.234375 -0.171875,0 -0.234375,-0.09375 -0.234375,-0.328125 0,-0.25 0.078125,-0.484375 0.171875,-0.703125 0.15625,-0.4375 0.609375,-1.625 0.609375,-2.203125 0,-0.640625 -0.390625,-1.0625 -1.140625,-1.0625 -0.625,0 -1.109375,0.3125 -1.484375,0.765625 z m 0,0"
               id="id-340d84fa-982c-492c-b200-ff53f9d8614a" />
          </g>
        </g>
      </g>
    </g>
    <path
       style="fill:#000000;stroke:#000000;stroke-width:0.75;stroke-dasharray:none;marker-start:url(#marker4637);marker-end:url(#Arrow3)"
       d="m 531.53934,308.25862 v 40.43469"
       id="path5926"
       sodipodi:nodetypes="cc" />
    <g
       ns2:version="1.8.2"
       ns2:texconverter="pdflatex"
       ns2:pdfconverter="inkscape"
       ns2:text="$a$"
       ns2:preamble="/home/bleyerj/texmf/tex/latex/mystyle/mystyle.sty"
       ns2:scale="1.9023438595488829"
       ns2:alignment="middle center"
       ns2:stroke-to-path="0"
       ns2:inkscapeversion="1.2.2"
       transform="matrix(1.9922,0,0,1.81654,539.602,324.342)"
       ns2:jacobian_sqrt="1.9023435515174434"
       id="g5948">
      <defs
         id="id-97709a86-fdef-4f50-ae96-604ada102d59">
        <g
           id="id-5e939cd6-5a50-4e0a-95de-21fb6258b680">
          <symbol
             overflow="visible"
             id="id-e3d73f70-61be-4361-a844-5c7d9faffc50">
            <path
               style="stroke:none"
               d=""
               id="id-ac2d457f-dec3-4960-ac28-a0b3a5bd7f05" />
          </symbol>
          <symbol
             overflow="visible"
             id="id-44cf00da-d5c5-4d7c-8248-d93776d16d0f">
            <path
               style="stroke:none"
               d="M 3.71875,-3.765625 C 3.53125,-4.140625 3.25,-4.40625 2.796875,-4.40625 c -1.15625,0 -2.390625,1.46875 -2.390625,2.921875 0,0.9375 0.546875,1.59375 1.3125,1.59375 0.203125,0 0.703125,-0.046875 1.296875,-0.75 0.078125,0.421875 0.4375,0.75 0.90625,0.75 0.359375,0 0.578125,-0.234375 0.75,-0.546875 0.15625,-0.359375 0.296875,-0.96875 0.296875,-0.984375 0,-0.109375 -0.09375,-0.109375 -0.125,-0.109375 -0.09375,0 -0.109375,0.046875 -0.140625,0.1875 -0.171875,0.640625 -0.34375,1.234375 -0.75,1.234375 -0.28125,0 -0.296875,-0.265625 -0.296875,-0.453125 0,-0.21875 0.015625,-0.3125 0.125,-0.75 C 3.890625,-1.71875 3.90625,-1.828125 4,-2.203125 L 4.359375,-3.59375 c 0.0625,-0.28125 0.0625,-0.296875 0.0625,-0.34375 0,-0.171875 -0.109375,-0.265625 -0.28125,-0.265625 -0.25,0 -0.390625,0.21875 -0.421875,0.4375 z M 3.078125,-1.1875 C 3.015625,-1 3.015625,-0.984375 2.875,-0.8125 2.4375,-0.265625 2.03125,-0.109375 1.75,-0.109375 c -0.5,0 -0.640625,-0.546875 -0.640625,-0.9375 0,-0.5 0.3125,-1.71875 0.546875,-2.1875 0.3125,-0.578125 0.75,-0.953125 1.15625,-0.953125 0.640625,0 0.78125,0.8125 0.78125,0.875 0,0.0625 -0.015625,0.125 -0.03125,0.171875 z m 0,0"
               id="id-5e33f19e-d16a-40a0-a6a6-53d1db1f6631" />
          </symbol>
        </g>
      </defs>
      <g
         id="id-583d11d2-484a-43f1-bc41-743834559482"
         transform="translate(-149.118,-130.359)">
        <g
           style="fill:#000000;fill-opacity:1"
           id="id-5f2fb141-4d38-4be8-a8fa-a85fe5206c68">
          <g
             transform="translate(148.712,134.765)"
             id="g6101">
            <path
               style="stroke:none"
               d="M 3.71875,-3.765625 C 3.53125,-4.140625 3.25,-4.40625 2.796875,-4.40625 c -1.15625,0 -2.390625,1.46875 -2.390625,2.921875 0,0.9375 0.546875,1.59375 1.3125,1.59375 0.203125,0 0.703125,-0.046875 1.296875,-0.75 0.078125,0.421875 0.4375,0.75 0.90625,0.75 0.359375,0 0.578125,-0.234375 0.75,-0.546875 0.15625,-0.359375 0.296875,-0.96875 0.296875,-0.984375 0,-0.109375 -0.09375,-0.109375 -0.125,-0.109375 -0.09375,0 -0.109375,0.046875 -0.140625,0.1875 -0.171875,0.640625 -0.34375,1.234375 -0.75,1.234375 -0.28125,0 -0.296875,-0.265625 -0.296875,-0.453125 0,-0.21875 0.015625,-0.3125 0.125,-0.75 C 3.890625,-1.71875 3.90625,-1.828125 4,-2.203125 L 4.359375,-3.59375 c 0.0625,-0.28125 0.0625,-0.296875 0.0625,-0.34375 0,-0.171875 -0.109375,-0.265625 -0.28125,-0.265625 -0.25,0 -0.390625,0.21875 -0.421875,0.4375 z M 3.078125,-1.1875 C 3.015625,-1 3.015625,-0.984375 2.875,-0.8125 2.4375,-0.265625 2.03125,-0.109375 1.75,-0.109375 c -0.5,0 -0.640625,-0.546875 -0.640625,-0.9375 0,-0.5 0.3125,-1.71875 0.546875,-2.1875 0.3125,-0.578125 0.75,-0.953125 1.15625,-0.953125 0.640625,0 0.78125,0.8125 0.78125,0.875 0,0.0625 -0.015625,0.125 -0.03125,0.171875 z m 0,0"
               id="id-b0007054-a5ab-40dc-995c-9a902dbd617e" />
          </g>
        </g>
      </g>
    </g>
    <path
       style="fill:#000000;stroke:#000000;stroke-width:0.75;stroke-dasharray:none;marker-start:url(#marker4637);marker-end:url(#Arrow3)"
       d="M 519.08532,399.61821 H 503.27445"
       id="path6142"
       sodipodi:nodetypes="cc" />
    <g
       ns2:version="1.8.2"
       ns2:texconverter="pdflatex"
       ns2:pdfconverter="inkscape"
       ns2:text="$2e$"
       ns2:preamble="/home/bleyerj/texmf/tex/latex/mystyle/mystyle.sty"
       ns2:scale="1.9869306"
       ns2:alignment="middle center"
       ns2:stroke-to-path="0"
       ns2:inkscapeversion="1.2.2"
       transform="matrix(1.98693,0,0,1.98693,501.845,406.095)"
       ns2:jacobian_sqrt="1.98693"
       id="g6212">
      <defs
         id="id-a84a0e8a-22cc-41c3-8a4f-a221c514349f">
        <g
           id="id-dc65ee67-930e-4335-87c5-f652ca33fc76">
          <symbol
             overflow="visible"
             id="id-8b7d63bb-2848-48c5-b8e4-91bef3042d01">
            <path
               style="stroke:none"
               d=""
               id="id-f29defbd-7371-4183-be72-e8f542a885ba" />
          </symbol>
          <symbol
             overflow="visible"
             id="id-e84b015b-b3d1-445a-81c0-ef3c548b0f57">
            <path
               style="stroke:none"
               d="m 1.265625,-0.765625 1.0625,-1.03125 c 1.546875,-1.375 2.140625,-1.90625 2.140625,-2.90625 0,-1.140625 -0.890625,-1.9375 -2.109375,-1.9375 -1.125,0 -1.859375,0.921875 -1.859375,1.8125 0,0.546875 0.5,0.546875 0.53125,0.546875 0.171875,0 0.515625,-0.109375 0.515625,-0.53125 0,-0.25 -0.1875,-0.515625 -0.53125,-0.515625 -0.078125,0 -0.09375,0 -0.125,0.015625 0.21875,-0.65625 0.765625,-1.015625 1.34375,-1.015625 0.90625,0 1.328125,0.8125 1.328125,1.625 C 3.5625,-3.90625 3.078125,-3.125 2.515625,-2.5 l -1.90625,2.125 C 0.5,-0.265625 0.5,-0.234375 0.5,0 H 4.203125 L 4.46875,-1.734375 H 4.234375 C 4.171875,-1.4375 4.109375,-1 4,-0.84375 3.9375,-0.765625 3.28125,-0.765625 3.0625,-0.765625 Z m 0,0"
               id="id-edccbd35-ca30-4d78-8419-cb3cfc33d6d6" />
          </symbol>
          <symbol
             overflow="visible"
             id="id-b2a1fda0-5bcf-49d0-a361-99bdc57aaf50">
            <path
               style="stroke:none"
               d=""
               id="id-48730fee-5869-4bb0-ab01-82e092198931" />
          </symbol>
          <symbol
             overflow="visible"
             id="id-cb8832ba-dffb-452a-8cd7-cac82ad3a880">
            <path
               style="stroke:none"
               d="m 1.859375,-2.296875 c 0.296875,0 1.03125,-0.03125 1.53125,-0.234375 0.703125,-0.296875 0.75,-0.890625 0.75,-1.03125 0,-0.4375 -0.375,-0.84375 -1.0625,-0.84375 -1.109375,0 -2.625,0.96875 -2.625,2.71875 0,1.015625 0.59375,1.796875 1.578125,1.796875 1.421875,0 2.25,-1.0625 2.25,-1.171875 0,-0.0625 -0.046875,-0.140625 -0.109375,-0.140625 -0.0625,0 -0.078125,0.03125 -0.140625,0.109375 -0.78125,0.984375 -1.875,0.984375 -1.984375,0.984375 -0.78125,0 -0.875,-0.84375 -0.875,-1.15625 0,-0.125 0.015625,-0.421875 0.15625,-1.03125 z m -0.46875,-0.21875 C 1.78125,-4.03125 2.8125,-4.1875 3.078125,-4.1875 c 0.453125,0 0.734375,0.296875 0.734375,0.625 0,1.046875 -1.59375,1.046875 -2.015625,1.046875 z m 0,0"
               id="id-b0363c27-8fb0-434b-b886-b8aeaea42d83" />
          </symbol>
        </g>
      </defs>
      <g
         id="id-7f111942-760b-40ee-ab27-911ec4e1af05"
         transform="translate(-149.212,-128.124)">
        <g
           style="fill:#000000;fill-opacity:1"
           id="id-d22ed067-bdd7-4e75-b1bb-c925a8d355b5">
          <g
             transform="translate(148.712,134.765)"
             id="g6381">
            <path
               style="stroke:none"
               d="m 1.265625,-0.765625 1.0625,-1.03125 c 1.546875,-1.375 2.140625,-1.90625 2.140625,-2.90625 0,-1.140625 -0.890625,-1.9375 -2.109375,-1.9375 -1.125,0 -1.859375,0.921875 -1.859375,1.8125 0,0.546875 0.5,0.546875 0.53125,0.546875 0.171875,0 0.515625,-0.109375 0.515625,-0.53125 0,-0.25 -0.1875,-0.515625 -0.53125,-0.515625 -0.078125,0 -0.09375,0 -0.125,0.015625 0.21875,-0.65625 0.765625,-1.015625 1.34375,-1.015625 0.90625,0 1.328125,0.8125 1.328125,1.625 C 3.5625,-3.90625 3.078125,-3.125 2.515625,-2.5 l -1.90625,2.125 C 0.5,-0.265625 0.5,-0.234375 0.5,0 H 4.203125 L 4.46875,-1.734375 H 4.234375 C 4.171875,-1.4375 4.109375,-1 4,-0.84375 3.9375,-0.765625 3.28125,-0.765625 3.0625,-0.765625 Z m 0,0"
               id="id-b51097eb-e4b4-4419-beb6-dcb7a597294f" />
          </g>
        </g>
        <g
           style="fill:#000000;fill-opacity:1"
           id="id-862d0a40-d4a3-456e-be56-221ef27ca7b2">
          <g
             transform="translate(153.694,134.765)"
             id="g6385">
            <path
               style="stroke:none"
               d="m 1.859375,-2.296875 c 0.296875,0 1.03125,-0.03125 1.53125,-0.234375 0.703125,-0.296875 0.75,-0.890625 0.75,-1.03125 0,-0.4375 -0.375,-0.84375 -1.0625,-0.84375 -1.109375,0 -2.625,0.96875 -2.625,2.71875 0,1.015625 0.59375,1.796875 1.578125,1.796875 1.421875,0 2.25,-1.0625 2.25,-1.171875 0,-0.0625 -0.046875,-0.140625 -0.109375,-0.140625 -0.0625,0 -0.078125,0.03125 -0.140625,0.109375 -0.78125,0.984375 -1.875,0.984375 -1.984375,0.984375 -0.78125,0 -0.875,-0.84375 -0.875,-1.15625 0,-0.125 0.015625,-0.421875 0.15625,-1.03125 z m -0.46875,-0.21875 C 1.78125,-4.03125 2.8125,-4.1875 3.078125,-4.1875 c 0.453125,0 0.734375,0.296875 0.734375,0.625 0,1.046875 -1.59375,1.046875 -2.015625,1.046875 z m 0,0"
               id="id-ac910842-46c5-443c-892f-4b4f8b354384" />
          </g>
        </g>
      </g>
    </g>
    <g
       ns2:version="1.8.2"
       ns2:texconverter="pdflatex"
       ns2:pdfconverter="inkscape"
       ns2:text="$F$"
       ns2:preamble="/home/bleyerj/texmf/tex/latex/mystyle/mystyle.sty"
       ns2:scale="1.9869306"
       ns2:alignment="middle center"
       ns2:stroke-to-path="0"
       ns2:inkscapeversion="1.2.2"
       transform="matrix(1.98693,0,0,1.98693,521.499,235.732)"
       ns2:jacobian_sqrt="1.98693"
       id="g6457"
       style="fill:#000080">
      <defs
         id="id-25a07d47-058c-4df3-bbd6-431ab422a43a">
        <g
           id="id-8c3963de-825b-49e4-a26d-e3ffba6cf38a">
          <symbol
             overflow="visible"
             id="id-e9075a7a-c1a7-48b4-a288-fa2f35cfdca3">
            <path
               style="stroke:none"
               d=""
               id="id-ea2af8f2-e51e-4be6-bb1c-ec14d3b16ac7" />
          </symbol>
          <symbol
             overflow="visible"
             id="id-0147109e-d9af-458f-b3dd-9cdb9c99b621">
            <path
               style="stroke:none"
               d="m 3.015625,-3.234375 h 0.96875 c 0.75,0 0.828125,0.15625 0.828125,0.4375 0,0.078125 0,0.1875 -0.0625,0.5 C 4.71875,-2.25 4.71875,-2.21875 4.71875,-2.1875 c 0,0.078125 0.0625,0.109375 0.109375,0.109375 0.109375,0 0.109375,-0.03125 0.15625,-0.203125 L 5.53125,-4.453125 C 5.5625,-4.5625 5.5625,-4.578125 5.5625,-4.609375 5.5625,-4.625 5.546875,-4.71875 5.4375,-4.71875 5.34375,-4.71875 5.328125,-4.671875 5.296875,-4.5 5.078125,-3.734375 4.859375,-3.546875 4,-3.546875 H 3.09375 l 0.640625,-2.53125 C 3.828125,-6.4375 3.84375,-6.46875 4.28125,-6.46875 h 1.3125 c 1.21875,0 1.453125,0.328125 1.453125,1.09375 0,0.234375 0,0.265625 -0.03125,0.546875 C 7,-4.703125 7,-4.6875 7,-4.65625 c 0,0.046875 0.03125,0.125 0.125,0.125 0.109375,0 0.109375,-0.0625 0.125,-0.25 L 7.453125,-6.515625 C 7.484375,-6.78125 7.4375,-6.78125 7.1875,-6.78125 H 2.296875 c -0.1875,0 -0.296875,0 -0.296875,0.203125 0,0.109375 0.09375,0.109375 0.28125,0.109375 0.375,0 0.65625,0 0.65625,0.171875 0,0.046875 0,0.0625 -0.0625,0.25 L 1.5625,-0.78125 c -0.09375,0.390625 -0.109375,0.46875 -0.90625,0.46875 -0.171875,0 -0.28125,0 -0.28125,0.1875 C 0.375,0 0.5,0 0.53125,0 0.8125,0 1.5625,-0.03125 1.84375,-0.03125 2.171875,-0.03125 3,0 3.328125,0 3.421875,0 3.53125,0 3.53125,-0.1875 3.53125,-0.265625 3.484375,-0.296875 3.484375,-0.296875 3.453125,-0.3125 3.421875,-0.3125 3.203125,-0.3125 c -0.21875,0 -0.265625,0 -0.515625,-0.015625 -0.296875,-0.03125 -0.328125,-0.078125 -0.328125,-0.203125 0,-0.015625 0,-0.078125 0.046875,-0.21875 z m 0,0"
               id="id-9351c9ae-a7ff-4818-a8c0-2f0796a911ec" />
          </symbol>
        </g>
      </defs>
      <g
         id="id-876db03b-97e4-4290-a420-dae32c557090"
         transform="translate(-149.087,-127.984)"
         style="fill:#000080">
        <g
           style="fill:#000080;fill-opacity:1"
           id="id-639440ae-b110-4b0b-af76-66151f7115b5">
          <g
             transform="translate(148.712,134.765)"
             id="g6658"
             style="fill:#000080">
            <path
               style="fill:#000080;stroke:none"
               d="m 3.015625,-3.234375 h 0.96875 c 0.75,0 0.828125,0.15625 0.828125,0.4375 0,0.078125 0,0.1875 -0.0625,0.5 C 4.71875,-2.25 4.71875,-2.21875 4.71875,-2.1875 c 0,0.078125 0.0625,0.109375 0.109375,0.109375 0.109375,0 0.109375,-0.03125 0.15625,-0.203125 L 5.53125,-4.453125 C 5.5625,-4.5625 5.5625,-4.578125 5.5625,-4.609375 5.5625,-4.625 5.546875,-4.71875 5.4375,-4.71875 5.34375,-4.71875 5.328125,-4.671875 5.296875,-4.5 5.078125,-3.734375 4.859375,-3.546875 4,-3.546875 H 3.09375 l 0.640625,-2.53125 C 3.828125,-6.4375 3.84375,-6.46875 4.28125,-6.46875 h 1.3125 c 1.21875,0 1.453125,0.328125 1.453125,1.09375 0,0.234375 0,0.265625 -0.03125,0.546875 C 7,-4.703125 7,-4.6875 7,-4.65625 c 0,0.046875 0.03125,0.125 0.125,0.125 0.109375,0 0.109375,-0.0625 0.125,-0.25 L 7.453125,-6.515625 C 7.484375,-6.78125 7.4375,-6.78125 7.1875,-6.78125 H 2.296875 c -0.1875,0 -0.296875,0 -0.296875,0.203125 0,0.109375 0.09375,0.109375 0.28125,0.109375 0.375,0 0.65625,0 0.65625,0.171875 0,0.046875 0,0.0625 -0.0625,0.25 L 1.5625,-0.78125 c -0.09375,0.390625 -0.109375,0.46875 -0.90625,0.46875 -0.171875,0 -0.28125,0 -0.28125,0.1875 C 0.375,0 0.5,0 0.53125,0 0.8125,0 1.5625,-0.03125 1.84375,-0.03125 2.171875,-0.03125 3,0 3.328125,0 3.421875,0 3.53125,0 3.53125,-0.1875 3.53125,-0.265625 3.484375,-0.296875 3.484375,-0.296875 3.453125,-0.3125 3.421875,-0.3125 3.203125,-0.3125 c -0.21875,0 -0.265625,0 -0.515625,-0.015625 -0.296875,-0.03125 -0.328125,-0.078125 -0.328125,-0.203125 0,-0.015625 0,-0.078125 0.046875,-0.21875 z m 0,0"
               id="id-39e3d73a-0216-43bb-950e-da8118484405" />
          </g>
        </g>
      </g>
    </g>
    <ellipse
       style="fill:#000000;stroke:#000000;stroke-width:0.75;stroke-dasharray:none"
       id="path6799"
       cx="735.48749"
       cy="416.78528"
       rx="2.1983457"
       ry="2.1648107" />
    <ellipse
       style="fill:#000000;stroke:#000000;stroke-width:0.75;stroke-dasharray:none"
       id="ellipse6801"
       cx="742.37109"
       cy="416.78528"
       rx="2.1983457"
       ry="2.1648107" />
    <ellipse
       style="fill:#000000;stroke:#000000;stroke-width:0.75;stroke-dasharray:none"
       id="ellipse6803"
       cx="749.2547"
       cy="416.78528"
       rx="2.1983457"
       ry="2.1648107" />
    <ellipse
       style="fill:#000000;stroke:#000000;stroke-width:0.75;stroke-dasharray:none"
       id="ellipse6805"
       cx="755.88068"
       cy="416.78528"
       rx="2.1983457"
       ry="2.1648107" />
  </g>
  <metadata
     id="metadata2787">
    <rdf:RDF>
      <cc:Work
         rdf:about="">
        <dc:title>SENB</dc:title>
      </cc:Work>
    </rdf:RDF>
  </metadata>
</svg>
